<?xml version="1.0" encoding="UTF-8"?>
<svg id="Camada_1" xmlns="http://www.w3.org/2000/svg" version="1.1" xmlns:xlink="http://www.w3.org/1999/xlink" viewBox="0 0 595.28 841.89">
  <!-- Generator: Adobe Illustrator 30.1.0, SVG Export Plug-In . SVG Version: 2.1.1 Build 136)  -->
  <defs>
    <style>
      .st0 {
        fill: none;
      }

      .st1 {
        fill: #363467;
      }

      .st2 {
        fill: #606ea3;
      }

      .st3 {
        clip-path: url(#clippath);
      }

      .st4 {
        fill: #c6af77;
      }
    </style>
    <clipPath id="clippath">
      <rect class="st0" x="144.83" y="318.03" width="269.29" height="206.57"/>
    </clipPath>
  </defs>
  <g class="st3">
    <path class="st2" d="M215.7,437.09v-93.9h-18.59c1.53,1.49,2.85,3.23,3.93,5.28,2,3.78,3.19,8.5,3.57,14.15h-15.33c-.3-3.56-1.26-6.19-2.89-7.89-1.63-1.7-3.77-2.56-6.43-2.56-2.99,0-5.39.97-7.19,2.92-1.8,1.95-2.69,4.55-2.69,7.81v33.24c0,2.81.93,5.05,2.78,6.74,1.85,1.68,4.33,2.53,7.44,2.53s5.58-.9,7.41-2.7c1.83-1.8,2.75-4.32,2.75-7.58v-6.29h-9.6v-14.09h24.43v20.21c0,5.24-1.03,9.77-3.09,13.59-2.06,3.82-4.94,6.76-8.65,8.82-3.71,2.06-8.12,3.09-13.25,3.09s-9.65-.99-13.45-2.98c-3.8-1.98-6.73-4.79-8.79-8.42-2.06-3.63-3.09-7.94-3.09-12.92v-33.24c0-5.32,1.02-9.89,3.06-13.73,1.24-2.33,2.83-4.29,4.69-5.98h-17.88v93.9h70.87Z"/>
    <path class="st1" d="M180.38,501.3h-11.45v23.31h21.37l-6.86-23.45c-.98.09-2,.14-3.06.14M180.94,461.65h-12.02v32.12h12.02c3.67,0,6.52-1.01,8.56-3.03,2.04-2.02,3.06-4.87,3.06-8.54v-8.42c0-3.86-1.02-6.84-3.06-8.96-2.04-2.11-4.9-3.17-8.56-3.17M199.27,524.61h16.43v-84.68h-70.87v84.68h16.01v-70.48h19.54c4.31,0,7.96.72,10.98,2.16,3.01,1.44,5.31,3.55,6.91,6.32,1.59,2.77,2.39,6.12,2.39,10.05v9.54c0,4.04-.79,7.49-2.39,10.33-1.59,2.85-3.89,5.02-6.91,6.51"/>
    <path class="st2" d="M267.17,417.55c1.85-1.93,2.78-4.54,2.78-7.83v-32.62c0-3.29-.93-5.9-2.78-7.83-1.85-1.93-4.37-2.89-7.55-2.89s-5.65.96-7.52,2.89c-1.87,1.93-2.81,4.54-2.81,7.83v32.62c0,3.29.94,5.9,2.81,7.83,1.87,1.93,4.38,2.89,7.52,2.89s5.7-.96,7.55-2.89M284.94,410.5c0,5.02-1.03,9.38-3.09,13.08-2.06,3.71-4.99,6.55-8.79,8.53-3.8,1.99-8.28,2.98-13.45,2.98s-9.65-.99-13.45-2.98c-3.8-1.98-6.73-4.83-8.79-8.53-2.06-3.71-3.09-8.07-3.09-13.08v-34.14c0-5.05,1.03-9.42,3.09-13.11,2.06-3.69,4.99-6.52,8.79-8.51,3.8-1.98,8.28-2.98,13.45-2.98s9.65.99,13.45,2.98c3.8,1.98,6.73,4.82,8.79,8.51,2.06,3.69,3.09,8.06,3.09,13.11v34.14ZM295.07,343.19h-70.87v107.36h70.87v-107.36Z"/>
    <path class="st2" d="M328.5,375.65v21.17h11.85c2.62,0,4.65-.65,6.09-1.97,1.44-1.31,2.16-3.14,2.16-5.5v-5.62c0-2.58-.72-4.58-2.16-5.98-1.44-1.4-3.51-2.1-6.21-2.1h-11.74ZM328.5,343.19v18.59h11.57c2.43,0,4.31-.65,5.64-1.97,1.33-1.31,1.99-3.18,1.99-5.61v-4.38c0-2.21-.67-3.9-2.02-5.08-.9-.79-2.05-1.29-3.42-1.55h-13.77ZM313.9,410.74v-67.56h-11.04v81.5h70.87v-81.5h-12.05c.36,1.67.57,3.45.57,5.39v4.44c0,4.19-1.21,7.65-3.62,10.36-2.41,2.71-5.85,4.46-10.3,5.25,4.75.64,8.44,2.42,11.06,5.36,2.62,2.94,3.93,6.75,3.93,11.43v5.67c0,6.25-1.84,11.09-5.53,14.51-3.69,3.42-8.9,5.14-15.64,5.14h-28.24Z"/>
    <path class="st4" d="M414.12,465.43v-45.35c0-6.26-5.08-11.34-11.34-11.34h-2.62v-63.01c5.75-1.81,9.92-7.18,9.92-13.52,0-7.83-6.35-14.17-14.17-14.17s-14.17,6.35-14.17,14.17c0,6.35,4.17,11.72,9.92,13.52v63.01h-11.55v68.03h22.68c6.26,0,11.34-5.08,11.34-11.34"/>
    <path class="st1" d="M250.33,491.86v6.01h18.59v-6.74c0-3.71-.81-6.58-2.44-8.62-1.63-2.04-3.94-3.06-6.93-3.06s-5.19,1.08-6.79,3.23c-1.61,2.15-2.41,5.21-2.41,9.18M295.07,524.61v-71.22h-70.87v71.22h20.94c-1.92-3.12-2.89-7.09-2.89-11.91v-20.21c0-6.55,1.52-11.61,4.55-15.19,3.03-3.57,7.28-5.36,12.75-5.36s9.88,1.66,12.92,4.97c3.03,3.31,4.55,7.98,4.55,14.01v14.49h-26.67v7.52c0,3.67.84,6.52,2.53,8.56,1.68,2.04,4.06,3.06,7.13,3.06,2.88,0,5.12-.8,6.71-2.41,1.59-1.61,2.39-3.89,2.39-6.85v-.34h8.08v.34c0,3.69-.74,6.79-2.18,9.33h20.07Z"/>
    <path class="st1" d="M356.16,494.89c0,5.61-1.55,9.97-4.66,13.06-3.11,3.09-7.51,4.63-13.2,4.63s-9.96-1.52-13.03-4.58c-3.07-3.05-4.6-7.35-4.6-12.89v-24.37c0-5.8,1.54-10.3,4.6-13.5,3.07-3.2,7.41-4.8,13.03-4.8s10.02,1.6,13.11,4.8c3.09,3.2,4.63,7.74,4.63,13.62v.45h-7.69v-.45c0-3.44-.86-6.12-2.58-8.03s-4.15-2.86-7.3-2.86-5.46.94-7.16,2.81c-1.7,1.87-2.55,4.53-2.55,7.97v24.37c0,3.18.85,5.63,2.55,7.36,1.7,1.72,4.09,2.58,7.16,2.58s5.58-.89,7.3-2.67c1.72-1.78,2.58-4.28,2.58-7.5v-.45h7.8v.45ZM373.73,427.52h-70.87v97.09h70.87v-97.09Z"/>
  </g>
</svg>